<?xml version="1.0" encoding="UTF-8"?>
<svg version="1.1" xmlns="http://www.w3.org/2000/svg" width="32" height="32">
<path d="M0 0 C10.56 0 21.12 0 32 0 C32 10.56 32 21.12 32 32 C21.44 32 10.88 32 0 32 C0 21.44 0 10.88 0 0 Z " fill="#020000" transform="translate(0,0)"/>
<path d="M0 0 C2.2109885 0.42793326 3.98119242 0.99059621 6 2 C6 3.65 6 5.3 6 7 C7.65 6.67 9.3 6.34 11 6 C11 6.99 11 7.98 11 9 C12.32 9.33 13.64 9.66 15 10 C13.68 11.65 12.36 13.3 11 15 C9.68 14.67 8.36 14.34 7 14 C6.7525 14.78375 6.505 15.5675 6.25 16.375 C5 19 5 19 3 20.375 C1 21 1 21 -1 20 C-1.02888514 16.85418577 -1.04675923 13.70840531 -1.0625 10.5625 C-1.07087891 9.66466797 -1.07925781 8.76683594 -1.08789062 7.84179688 C-1.09111328 6.98779297 -1.09433594 6.13378906 -1.09765625 5.25390625 C-1.10551147 4.06776733 -1.10551147 4.06776733 -1.11352539 2.85766602 C-1 1 -1 1 0 0 Z " fill="#1B0308" transform="translate(7,6)"/>
<path d="M0 0 C0 6.27 0 12.54 0 19 C-1.32 19.33 -2.64 19.66 -4 20 C-5.75 18.5625 -5.75 18.5625 -7 17 C-6.505 15.515 -6.505 15.515 -6 14 C-4.515 14.99 -4.515 14.99 -3 16 C-3 11.71 -3 7.42 -3 3 C-4.98 3.99 -4.98 3.99 -7 5 C-6.625 2.5625 -6.625 2.5625 -6 0 C-4 -1 -4 -1 0 0 Z " fill="#840C31" transform="translate(27,7)"/>
<path d="M0 0 C2.2109885 0.42793326 3.98119242 0.99059621 6 2 C6 3.32 6 4.64 6 6 C5.34 6 4.68 6 4 6 C4 5.34 4 4.68 4 4 C3.34 4 2.68 4 2 4 C2.02320313 4.62648438 2.04640625 5.25296875 2.0703125 5.8984375 C2.08835937 6.71570313 2.10640625 7.53296875 2.125 8.375 C2.14820313 9.18710938 2.17140625 9.99921875 2.1953125 10.8359375 C2 13 2 13 0 15 C-1.18893275 10.39288558 -1.33243079 5.73225005 -1 1 C-0.67 0.67 -0.34 0.34 0 0 Z " fill="#C21E3E" transform="translate(7,6)"/>
<path d="M0 0 C0.66 0.66 1.32 1.32 2 2 C2.99 1.67 3.98 1.34 5 1 C5 5.29 5 9.58 5 14 C4.01 13.67 3.02 13.34 2 13 C1.34 13.66 0.68 14.32 0 15 C-0.20086443 11.28400809 -0.1519437 10.22791555 2 7 C1.34 6.34 0.68 5.68 0 5 C-0.125 2.375 -0.125 2.375 0 0 Z " fill="#22040B" transform="translate(19,9)"/>
<path d="M0 0 C3 3 3 3 4 6 C4.99 5.67 5.98 5.34 7 5 C6.75 6.875 6.75 6.875 6 9 C4.0625 10.3125 4.0625 10.3125 2 11 C1.34 10.67 0.68 10.34 0 10 C0 6.7 0 3.4 0 0 Z " fill="#860A35" transform="translate(6,16)"/>
<path d="M0 0 C0.99 0.33 1.98 0.66 3 1 C3 3.97 3 6.94 3 10 C2.34 10 1.68 10 1 10 C1 8.02 1 6.04 1 4 C-0.98 4.99 -0.98 4.99 -3 6 C-2.625 3.5625 -2.625 3.5625 -2 1 C-1.34 0.67 -0.68 0.34 0 0 Z " fill="#E82A45" transform="translate(23,6)"/>
<path d="M0 0 C2.16874252 0.50603992 3.99967627 0.99983813 6 2 C6 3.32 6 4.64 6 6 C4 6 4 6 2.375 4.5 C1.92125 4.005 1.4675 3.51 1 3 C0.67 4.32 0.34 5.64 0 7 C0 4.69 0 2.38 0 0 Z " fill="#DE2A41" transform="translate(7,6)"/>
<path d="M0 0 C0.99 0.33 1.98 0.66 3 1 C1.68 2.65 0.36 4.3 -1 6 C-2.32 5.67 -3.64 5.34 -5 5 C-3.35 3.35 -1.7 1.7 0 0 Z " fill="#B3153E" transform="translate(19,15)"/>
<path d="M0 0 C0.99 0 1.98 0 3 0 C3 0.99 3 1.98 3 3 C1.1875 4.75 1.1875 4.75 -1 6 C-1.99 5.67 -2.98 5.34 -4 5 C-2.1875 2.5 -2.1875 2.5 0 0 Z " fill="#CC1E41" transform="translate(15,12)"/>
</svg>
